Coordinates
version=1
nRows=17
nColumns=34
inDegrees=yes

Units are S.I. units (second, meters, Newtons, ...)
If the header above contains a line with 'inDegrees', this indicates whether rotational values are in degrees (yes) or radians (no).

endheader
time	pelvis_tilt	pelvis_list	pelvis_rotation	pelvis_tx	pelvis_ty	pelvis_tz	hip_flexion_r	hip_adduction_r	hip_rotation_r	knee_angle_r	ankle_angle_r	subtalar_angle_r	mtp_angle_r	hip_flexion_l	hip_adduction_l	hip_rotation_l	knee_angle_l	ankle_angle_l	subtalar_angle_l	mtp_angle_l	lumbar_extension	lumbar_bending	lumbar_rotation	arm_flex_r	arm_add_r	arm_rot_r	elbow_flex_r	pro_sup_r	arm_flex_l	arm_add_l	arm_rot_l	elbow_flex_l	pro_sup_l
      3.30000000	      0.70333549	      0.91328423	     -5.14836125	     -0.48752921	      0.95791336	     -0.15088174	     -2.21615349	     -1.29210407	      1.41929652	      0.00000000	      3.79480122	     -2.36482405	      0.00000000	     -4.40084146	     -0.05982920	     -7.48519990	      0.76912331	      5.66155703	     -0.10573552	      0.00000000	      0.49749061	     -2.31154301	     -3.00830351	     -9.76950476	    -19.11768522	     10.68469231	     84.43150938	     89.36932155	     -4.81265327	     -6.97894186	      2.14866351	     22.74771253	     73.39183908
      3.31666670	      0.87274493	      0.92719443	     -4.85677954	     -0.47809476	      0.96087492	     -0.15338456	     -2.64283245	     -1.35174574	      1.21849036	      0.00000000	      3.86645678	     -2.40582379	      0.00000000	     -4.64165462	     -0.03061678	     -7.32353536	      1.04134674	      6.17041535	      0.09968868	      0.00000000	      0.20313138	     -2.12420947	     -2.63800629	    -10.11566551	    -17.59386035	     10.23509854	     78.44446040	     89.50080440	     -5.04567398	     -7.05373610	      2.50335723	     23.24475549	     73.62133141
      3.33333330	      0.96661086	      0.89428730	     -4.42501077	     -0.47582558	      0.95660246	     -0.15355158	     -3.08717524	     -1.34885299	      1.10227404	      0.00000000	      4.23725941	     -2.63552206	      0.00000000	     -4.84812150	     -0.05574682	     -7.15329346	      1.21959553	      6.58756569	      0.25810606	      0.00000000	      0.19451087	     -1.81904832	     -2.76819461	     -9.91064593	    -16.09486528	      9.86430935	     72.13787027	     89.66005629	     -5.59116555	     -7.10439660	      3.02877012	     23.93482280	     74.00916999
      3.35000000	      1.10213698	      0.91679752	     -4.12236399	     -0.47497708	      0.95998710	     -0.15335840	     -3.54882600	     -1.37113068	      0.93905982	      0.00000000	      4.44341870	     -2.86992964	      0.00000000	     -5.18244577	     -0.00840495	     -6.99141187	      1.29143686	      6.90303457	      0.47321189	      0.00000000	      0.13397787	     -1.64605817	     -2.78990920	     -9.46678141	    -14.65219852	      9.64076983	     65.53258755	     89.73752317	     -5.93082625	     -7.25345353	      3.60008804	     24.50469941	     74.47067120
      3.36666670	      1.21821883	      0.90460353	     -3.77464539	     -0.47297682	      0.96005841	     -0.15385612	     -3.97135618	     -1.35563267	      0.81326573	      0.00000000	      4.57470924	     -3.15160727	      0.00000000	     -5.50579591	     -0.00118003	     -6.75870430	      1.28510466	      7.45887665	      0.72362210	      0.00000000	      0.11927131	     -1.47807519	     -2.90116237	     -8.95878964	    -13.30147393	      9.47874269	     58.95161747	     89.73089579	     -6.10548433	     -7.44870316	      4.26850975	     24.96511723	     75.01281436
      3.38333330	      1.30312542	      0.85866749	     -3.53556869	     -0.47291400	      0.95196428	     -0.15355837	     -4.27492386	     -1.27660045	      0.71622185	      0.00000000	      4.69797734	     -3.63296637	      0.00000000	     -5.78045998	     -0.05045285	     -6.74988966	      1.23339490	      7.72705820	      0.72614738	      0.00000000	      0.16702251	     -1.21145976	     -2.87145735	     -8.22485361	    -12.06312319	      9.27584594	     52.76464487	     89.66472878	     -6.15436394	     -7.66029403	      4.88356508	     25.49563028	     75.55457672
      3.40000000	      1.14203891	      0.81106723	     -3.30569666	     -0.47405410	      0.95257837	     -0.15371031	     -4.22990142	     -1.18616720	      0.65524417	      0.00000000	      4.90506628	     -3.91158539	      0.00000000	     -5.70588076	     -0.12301584	     -6.52210824	      1.26295297	      8.29053382	      0.77314203	      0.00000000	      0.50284506	     -0.95897696	     -3.15372505	     -7.08951167	    -11.15402425	     10.21991562	     46.48721808	     89.61867443	     -6.35256734	     -7.90542353	      5.80232070	     25.76314673	     76.67664045
      3.41666670	      1.33593907	      0.77711092	     -3.09533445	     -0.47484156	      0.95642342	     -0.15498306	     -4.58817677	     -1.15687436	      0.76133217	      0.00000000	      4.98359766	     -4.23922216	      0.00000000	     -6.05403241	     -0.13394401	     -6.38755695	      1.18616966	      8.18802483	      0.66143959	      0.00000000	      0.32465060	     -0.67875187	     -3.06705025	     -6.18895568	     -9.90739366	      9.35874020	     40.85012970	     89.31811096	     -6.15996831	     -7.94960068	      6.17438900	     25.68219360	     77.05142417
      3.43333330	      1.32036270	      0.76430231	     -2.84881587	     -0.47445240	      0.95860690	     -0.15592043	     -4.60762784	     -1.12112222	      0.72883566	      0.00000000	      5.03979893	     -4.32571832	      0.00000000	     -6.09081858	     -0.14397691	     -6.18296391	      1.09749060	      8.25020381	      0.61858563	      0.00000000	      0.31749106	     -0.48073329	     -2.87365473	     -5.29238771	     -8.76059152	      8.85168025	     35.36764240	     89.04989514	     -5.82978540	     -8.02446577	      6.72467734	     25.36868820	     77.41482076
      3.45000000	      1.29948437	      0.84230492	     -2.60715638	     -0.47967604	      0.96148435	     -0.15584348	     -4.51129794	     -1.19117611	      0.64378086	      0.00000000	      5.09604414	     -4.22426389	      0.00000000	     -5.88251942	     -0.04796302	     -5.90675201	      1.02524581	      8.01286302	      0.47961267	      0.00000000	      0.13381634	     -0.39332111	     -2.74705900	     -4.18251125	     -7.81650324	      8.49869866	     30.46649403	     88.78672002	     -5.26203867	     -8.02746865	      7.38948785	     24.86783126	     77.73968569
      3.46666670	      1.28760005	      0.89387428	     -2.37889956	     -0.47972268	      0.95895503	     -0.15681681	     -4.42235377	     -1.26841066	      0.53453086	      0.00000000	      5.14831692	     -4.15233861	      0.00000000	     -5.74403324	      0.01984730	     -5.69801019	      0.96841744	      8.09916272	      0.71222665	      0.00000000	     -0.05964694	     -0.30015680	     -2.71732584	     -3.20964230	     -7.00817974	      8.20441392	     26.42809200	     88.51234819	     -4.80563722	     -8.05330953	      8.06157243	     24.53430791	     78.00131666
      3.48333330	      1.30350778	      0.92722847	     -2.32803562	     -0.48627250	      0.96156046	     -0.15589412	     -4.16976843	     -1.30810947	      0.24857115	      0.00000000	      5.12534617	     -4.25293280	      0.00000000	     -5.56673277	      0.08737125	     -5.59154671	      0.78109731	      8.05250668	      0.74624057	      0.00000000	     -0.45166747	     -0.22656121	     -2.37758488	     -2.54841716	     -6.40135360	      8.02704026	     23.73208401	     88.31458852	     -4.22220104	     -8.01547926	      8.52316186	     24.41982494	     78.13589682
      3.50000000	      1.25509186	      0.95353985	     -2.34078916	     -0.48718489	      0.96063326	     -0.15615639	     -3.95595617	     -1.33846868	      0.28645818	      0.00000000	      5.10675920	     -4.22658032	      0.00000000	     -5.33927283	      0.12706252	     -5.57094562	      0.68573806	      7.97945970	      0.78724788	      0.00000000	     -0.81477751	     -0.06260440	     -2.47613840	     -2.59925556	     -6.27214260	      8.03412695	     23.56930634	     88.30683820	     -4.05942317	     -7.95736757	      8.55108798	     24.45090034	     78.14178541
      3.51666670	      1.54554926	      0.93726597	     -2.29438027	     -0.48639566	      0.96109861	     -0.15575457	     -4.16825851	     -1.29978603	      0.26074158	      0.00000000	      4.90583780	     -4.21163546	      0.00000000	     -5.43699400	      0.07523108	     -5.47164436	      0.79667122	      7.64522954	      0.77577534	      0.00000000	     -1.42217474	     -0.03450370	     -2.42211020	     -1.13147343	     -5.46670429	      7.31886397	     19.54262563	     87.89975112	     -3.46563323	     -7.97313101	      9.42428402	     24.20329043	     78.27495055
      3.53333330	      1.52869715	      0.96323842	     -2.33074440	     -0.48414132	      0.96289318	     -0.15593303	     -4.10263342	     -1.32128163	      0.17234689	      0.00000000	      4.80906268	     -4.19955898	      0.00000000	     -5.31381582	      0.08494117	     -5.50264397	      0.79956682	      7.57746385	      0.78948758	      0.00000000	     -1.65322946	      0.05084324	     -2.42172384	     -1.22294379	     -5.28580449	      7.32402066	     19.40315283	     87.88636884	     -3.49762754	     -7.82482626	      9.48733713	     24.20782620	     78.27761653
      3.55000000	      1.74173767	      0.96527857	     -2.39694956	     -0.48260545	      0.96146658	     -0.15607406	     -4.31428934	     -1.35192343	     -0.00607328	      0.00000000	      4.64512506	     -3.93884899	      0.00000000	     -5.53073850	      0.07568045	     -5.57439094	      0.72466166	      7.52138754	      0.94490318	      0.00000000	     -1.95643215	      0.10034868	     -2.33760330	     -0.77481053	     -4.89479512	      6.81680989	     17.65297384	     87.56502404	     -3.39796485	     -7.79540431	     10.09176898	     24.31648897	     78.23720451
      3.56666670	      1.72280935	      0.95794081	     -2.44397726	     -0.48242584	      0.96404750	     -0.15587869	     -4.27384532	     -1.36431456	     -0.02766234	      0.00000000	      4.61098272	     -3.92825659	      0.00000000	     -5.56761198	      0.07277160	     -5.55840450	      0.68411171	      7.55003356	      0.94983521	      0.00000000	     -2.00906348	      0.14896643	     -2.36651790	     -0.88239330	     -4.80820378	      6.81748599	     17.60293151	     87.55834223	     -3.46866879	     -7.69287618	     10.12659523	     24.30532448	     78.23568651
